<svg xmlns="http://www.w3.org/2000/svg" width="512" height="512" viewBox="0 0 512 512" stroke-linecap="round" stroke-linejoin="round"><title>Jiaye relic notes</title><defs></defs><g id="object" ><path d="M110 356 L283 387 L407 162 L226 130 Z" fill="#e9dab9" stroke="#293f37" stroke-width="2" /><path d="M116 348 L280 379 L402 157" fill="none" stroke="#ae9e7c" stroke-width="1" /><path d="M116 343 L280 374 L402 154" fill="none" stroke="#ae9e7c" stroke-width="1" /><path d="M116 338 L280 369 L402 151" fill="none" stroke="#ae9e7c" stroke-width="1" /><path d="M116 333 L280 364 L402 148" fill="none" stroke="#ae9e7c" stroke-width="1" /><path d="M108 340 L281 372 L399 147 L225 116 Z" fill="#9c8462" stroke="#293f37" stroke-width="2.3" /><path d="M127 340 L298 134" fill="none" stroke="#d5c7a6" stroke-width="2" /><path d="M210 152 l12 2 l8 -9" fill="none" stroke="#e1d3b0" stroke-width="2" /><path d="M192 187 l12 2 l8 -9" fill="none" stroke="#e1d3b0" stroke-width="2" /><path d="M174 222 l12 2 l8 -9" fill="none" stroke="#e1d3b0" stroke-width="2" /><path d="M156 257 l12 2 l8 -9" fill="none" stroke="#e1d3b0" stroke-width="2" /><path d="M138 292 l12 2 l8 -9" fill="none" stroke="#e1d3b0" stroke-width="2" /><path d="M254 139 L288 145 L229 259 L196 251 Z" fill="#e9dfc1" stroke="#293f37" stroke-width="1" /><path d="M256 161 l10 2 m-7 -5 l-4 11" fill="none" stroke="#7a8063" stroke-width="1" /><path d="M246 180 l10 2 m-7 -5 l-4 11" fill="none" stroke="#7a8063" stroke-width="1" /><path d="M236 200 l10 2 m-7 -5 l-4 11" fill="none" stroke="#7a8063" stroke-width="1" /><path d="M226 221 l10 2 m-7 -5 l-4 11" fill="none" stroke="#7a8063" stroke-width="1" /><g transform="translate(235 323) scale(.35)" ><g transform="rotate(-45)" ><path d="M0 0 Q-3 -50 0 -98" fill="none" stroke="#66734e" stroke-width="2.4" /><path d="M0 -20 Q-37 -23 -28 -42 Q-7 -45 0 -20 Z" fill="#7e9267" stroke="#293f37" stroke-width="0.7" /><path d="M0 -30 Q30 -58 37 -44 Q29 -25 0 -30 Z" fill="#93a478" stroke="#293f37" stroke-width="0.7" /><path d="M0 -43 Q-37 -46 -28 -65 Q-7 -68 0 -43 Z" fill="#7e9267" stroke="#293f37" stroke-width="0.7" /><path d="M0 -53 Q30 -81 37 -67 Q29 -48 0 -53 Z" fill="#93a478" stroke="#293f37" stroke-width="0.7" /><path d="M0 -66 Q-37 -69 -28 -88 Q-7 -91 0 -66 Z" fill="#7e9267" stroke="#293f37" stroke-width="0.7" /><path d="M0 -76 Q30 -104 37 -90 Q29 -71 0 -76 Z" fill="#93a478" stroke="#293f37" stroke-width="0.7" /></g><g transform="rotate(-15)" ><path d="M0 0 Q-3 -50 0 -98" fill="none" stroke="#66734e" stroke-width="2.4" /><path d="M0 -20 Q-37 -23 -28 -42 Q-7 -45 0 -20 Z" fill="#7e9267" stroke="#293f37" stroke-width="0.7" /><path d="M0 -30 Q30 -58 37 -44 Q29 -25 0 -30 Z" fill="#93a478" stroke="#293f37" stroke-width="0.7" /><path d="M0 -43 Q-37 -46 -28 -65 Q-7 -68 0 -43 Z" fill="#7e9267" stroke="#293f37" stroke-width="0.7" /><path d="M0 -53 Q30 -81 37 -67 Q29 -48 0 -53 Z" fill="#93a478" stroke="#293f37" stroke-width="0.7" /><path d="M0 -66 Q-37 -69 -28 -88 Q-7 -91 0 -66 Z" fill="#7e9267" stroke="#293f37" stroke-width="0.7" /><path d="M0 -76 Q30 -104 37 -90 Q29 -71 0 -76 Z" fill="#93a478" stroke="#293f37" stroke-width="0.7" /></g><g transform="rotate(15)" ><path d="M0 0 Q-3 -50 0 -98" fill="none" stroke="#66734e" stroke-width="2.4" /><path d="M0 -20 Q-37 -23 -28 -42 Q-7 -45 0 -20 Z" fill="#7e9267" stroke="#293f37" stroke-width="0.7" /><path d="M0 -30 Q30 -58 37 -44 Q29 -25 0 -30 Z" fill="#93a478" stroke="#293f37" stroke-width="0.7" /><path d="M0 -43 Q-37 -46 -28 -65 Q-7 -68 0 -43 Z" fill="#7e9267" stroke="#293f37" stroke-width="0.7" /><path d="M0 -53 Q30 -81 37 -67 Q29 -48 0 -53 Z" fill="#93a478" stroke="#293f37" stroke-width="0.7" /><path d="M0 -66 Q-37 -69 -28 -88 Q-7 -91 0 -66 Z" fill="#7e9267" stroke="#293f37" stroke-width="0.7" /><path d="M0 -76 Q30 -104 37 -90 Q29 -71 0 -76 Z" fill="#93a478" stroke="#293f37" stroke-width="0.7" /></g><g transform="rotate(42)" ><path d="M0 0 Q-3 -50 0 -98" fill="none" stroke="#66734e" stroke-width="2.4" /><path d="M0 -20 Q-37 -23 -28 -42 Q-7 -45 0 -20 Z" fill="#7e9267" stroke="#293f37" stroke-width="0.7" /><path d="M0 -30 Q30 -58 37 -44 Q29 -25 0 -30 Z" fill="#93a478" stroke="#293f37" stroke-width="0.7" /><path d="M0 -43 Q-37 -46 -28 -65 Q-7 -68 0 -43 Z" fill="#7e9267" stroke="#293f37" stroke-width="0.7" /><path d="M0 -53 Q30 -81 37 -67 Q29 -48 0 -53 Z" fill="#93a478" stroke="#293f37" stroke-width="0.7" /><path d="M0 -66 Q-37 -69 -28 -88 Q-7 -91 0 -66 Z" fill="#7e9267" stroke="#293f37" stroke-width="0.7" /><path d="M0 -76 Q30 -104 37 -90 Q29 -71 0 -76 Z" fill="#93a478" stroke="#293f37" stroke-width="0.7" /></g></g></g></svg>