<svg xmlns="http://www.w3.org/2000/svg" width="512" height="512" viewBox="0 0 512 512" stroke-linecap="round" stroke-linejoin="round"><title>Jiaye relic plan</title><defs></defs><g id="object" ><path d="M74 199 L370 122 L441 323 L138 401 Z" fill="#e8dbb8" stroke="#293f37" stroke-width="1.8" /><path d="M77 197 Q49 208 68 227 L143 413 Q163 427 165 404 Z" fill="#c6b086" stroke="#293f37" stroke-width="1.8" /><path d="M367 120 Q389 110 396 129 L463 312 Q465 334 441 326 Z" fill="#bba279" stroke="#293f37" stroke-width="1.8" /><path d="M157 292 L236 208 L340 242 L266 323 Z M183 275 L231 251 L266 262 L299 247 M236 208 L236 280 M266 323 L266 263" fill="none" stroke="#768877" stroke-width="2" /><path d="M156 327 L206 300 M284 193 L354 211 M284 207 L358 223" fill="none" stroke="#9b9b79" stroke-width="1.5" /></g></svg>