<svg xmlns="http://www.w3.org/2000/svg" width="1200" height="560" viewBox="0 0 1200 560" stroke-linecap="round" stroke-linejoin="round"><title>Jiaye event leadership</title><defs></defs><rect x="0" y="0" width="1200" height="560" rx="0" fill="#f7f0df" /><g id="table" ><path d="M0 357 Q511 329 1200 353 L1200 560 H0 Z" fill="#d8c7a1" /><path d="M0 385 Q477 365 1200 385 M0 466 Q527 448 1200 468" fill="none" stroke="#b7a780" stroke-width="1.5" /></g><g id="window" ><rect x="882" y="40" width="228" height="266" rx="0" fill="#dae0c8" stroke="#293f37" stroke-width="2" /><path d="M892 40 L892 307" fill="none" stroke="#9a8d6b" stroke-width="4" /><path d="M950 40 L950 307" fill="none" stroke="#9a8d6b" stroke-width="4" /><path d="M1008 40 L1008 307" fill="none" stroke="#9a8d6b" stroke-width="4" /><path d="M1066 40 L1066 307" fill="none" stroke="#9a8d6b" stroke-width="4" /><path d="M1110 40 L1110 307" fill="none" stroke="#9a8d6b" stroke-width="4" /><path d="M883 104 L1110 104" fill="none" stroke="#9a8d6b" stroke-width="3" /><path d="M883 170 L1110 170" fill="none" stroke="#9a8d6b" stroke-width="3" /><path d="M883 237 L1110 237" fill="none" stroke="#9a8d6b" stroke-width="3" /></g><g transform="translate(443 106) scale(.89)" ><path d="M110 356 L283 387 L407 162 L226 130 Z" fill="#e9dab9" stroke="#293f37" stroke-width="2" /><path d="M116 348 L280 379 L402 157" fill="none" stroke="#ae9e7c" stroke-width="1" /><path d="M116 343 L280 374 L402 154" fill="none" stroke="#ae9e7c" stroke-width="1" /><path d="M116 338 L280 369 L402 151" fill="none" stroke="#ae9e7c" stroke-width="1" /><path d="M116 333 L280 364 L402 148" fill="none" stroke="#ae9e7c" stroke-width="1" /><path d="M108 340 L281 372 L399 147 L225 116 Z" fill="#6f8166" stroke="#293f37" stroke-width="2.3" /><path d="M127 340 L298 134" fill="none" stroke="#d5c7a6" stroke-width="2" /><path d="M210 152 l12 2 l8 -9" fill="none" stroke="#e1d3b0" stroke-width="2" /><path d="M192 187 l12 2 l8 -9" fill="none" stroke="#e1d3b0" stroke-width="2" /><path d="M174 222 l12 2 l8 -9" fill="none" stroke="#e1d3b0" stroke-width="2" /><path d="M156 257 l12 2 l8 -9" fill="none" stroke="#e1d3b0" stroke-width="2" /><path d="M138 292 l12 2 l8 -9" fill="none" stroke="#e1d3b0" stroke-width="2" /><path d="M254 139 L288 145 L229 259 L196 251 Z" fill="#e9dfc1" stroke="#293f37" stroke-width="1" /><path d="M256 161 l10 2 m-7 -5 l-4 11" fill="none" stroke="#7a8063" stroke-width="1" /><path d="M246 180 l10 2 m-7 -5 l-4 11" fill="none" stroke="#7a8063" stroke-width="1" /><path d="M236 200 l10 2 m-7 -5 l-4 11" fill="none" stroke="#7a8063" stroke-width="1" /><path d="M226 221 l10 2 m-7 -5 l-4 11" fill="none" stroke="#7a8063" stroke-width="1" /><path d="M176 276 L318 294 L298 326 L156 311 Z" fill="#9c6656" stroke="#293f37" stroke-width="1.1" /></g><g transform="translate(122 25) scale(.84)" ><path d="M252 93 L252 155" fill="none" stroke="#7c6a4d" stroke-width="3" /><ellipse cx="252" cy="250" rx="88" ry="102" fill="#c7a06b" stroke="#293f37" stroke-width="2" /><path d="M165 250 L339 250 M252 149 L252 352 M211 160 Q183 254 211 339 M293 160 Q323 254 293 338" fill="none" stroke="#987644" stroke-width="1.5" /><rect x="207" y="147" width="92" height="17" rx="0" fill="#816c46" stroke="#293f37" stroke-width="1" /><rect x="210" y="340" width="86" height="15" rx="0" fill="#816c46" stroke="#293f37" stroke-width="1" /><path d="M230 355 L233 397 M252 355 L252 401 M274 355 L271 397" fill="none" stroke="#a2533b" stroke-width="3" /></g><rect x="766" y="400" width="63" height="38" rx="0" fill="#a2533b" stroke="#293f37" stroke-width="1.2" /><rect x="782" y="377" width="34" height="30" rx="0" fill="#b98e63" stroke="#293f37" stroke-width="1.2" /><g id="paper-grain" ><ellipse cx="684.39" cy="354.05" rx="1.2" ry="0.28" fill="#6a604e" opacity="0.046"/><ellipse cx="1068.97" cy="508.94" rx="0.51" ry="0.4" fill="#6a604e" opacity="0.045"/><ellipse cx="604.07" cy="541.07" rx="0.88" ry="0.33" fill="#6a604e" opacity="0.058"/><ellipse cx="762.74" cy="168.72" rx="0.64" ry="0.35" fill="#6a604e" opacity="0.022"/><ellipse cx="729.1" cy="412.08" rx="0.77" ry="0.45" fill="#6a604e" opacity="0.057"/><ellipse cx="666.73" cy="381.56" rx="0.43" ry="0.22" fill="#6a604e" opacity="0.059"/><ellipse cx="341.33" cy="119.48" rx="1.29" ry="0.42" fill="#6a604e" opacity="0.025"/><ellipse cx="386.01" cy="135.9" rx="0.6" ry="0.2" fill="#6a604e" opacity="0.041"/><ellipse cx="365.21" cy="220.76" rx="0.5" ry="0.23" fill="#6a604e" opacity="0.021"/><ellipse cx="1047.31" cy="418.53" rx="0.92" ry="0.24" fill="#6a604e" opacity="0.026"/><ellipse cx="143.58" cy="177.27" rx="0.36" ry="0.28" fill="#6a604e" opacity="0.028"/><ellipse cx="231.41" cy="366.09" rx="0.8" ry="0.34" fill="#6a604e" opacity="0.034"/><ellipse cx="646.82" cy="439.69" rx="0.64" ry="0.22" fill="#6a604e" opacity="0.039"/><ellipse cx="455.0" cy="437.08" rx="0.42" ry="0.46" fill="#6a604e" opacity="0.021"/><ellipse cx="650.68" cy="248.41" rx="0.65" ry="0.47" fill="#6a604e" opacity="0.048"/><ellipse cx="195.85" cy="277.17" rx="0.97" ry="0.21" fill="#6a604e" opacity="0.023"/><ellipse cx="722.08" cy="408.52" rx="0.81" ry="0.33" fill="#6a604e" opacity="0.040"/><ellipse cx="312.7" cy="490.84" rx="1.36" ry="0.34" fill="#6a604e" opacity="0.021"/><ellipse cx="476.53" cy="449.71" rx="0.66" ry="0.23" fill="#6a604e" opacity="0.027"/><ellipse cx="854.01" cy="348.33" rx="0.61" ry="0.39" fill="#6a604e" opacity="0.050"/><ellipse cx="1159.33" cy="465.53" rx="0.78" ry="0.44" fill="#6a604e" opacity="0.057"/><ellipse cx="1042.74" cy="420.27" rx="0.95" ry="0.35" fill="#6a604e" opacity="0.054"/><ellipse cx="750.08" cy="403.89" rx="0.55" ry="0.23" fill="#6a604e" opacity="0.031"/><ellipse cx="700.05" cy="320.88" rx="0.52" ry="0.26" fill="#6a604e" opacity="0.058"/><ellipse cx="85.8" cy="518.78" rx="1.15" ry="0.37" fill="#6a604e" opacity="0.060"/><ellipse cx="815.72" cy="3.8" rx="1.33" ry="0.32" fill="#6a604e" opacity="0.057"/><ellipse cx="976.59" cy="77.34" rx="0.34" ry="0.21" fill="#6a604e" opacity="0.051"/><ellipse cx="949.72" cy="127.69" rx="0.42" ry="0.31" fill="#6a604e" opacity="0.052"/><ellipse cx="888.92" cy="485.56" rx="1.36" ry="0.43" fill="#6a604e" opacity="0.053"/><ellipse cx="19.65" cy="3.62" rx="1.25" ry="0.39" fill="#6a604e" opacity="0.033"/><ellipse cx="153.85" cy="186.18" rx="0.67" ry="0.35" fill="#6a604e" opacity="0.038"/><ellipse cx="242.65" cy="45.95" rx="0.52" ry="0.24" fill="#6a604e" opacity="0.024"/><ellipse cx="497.42" cy="72.87" rx="1.18" ry="0.36" fill="#6a604e" opacity="0.038"/><ellipse cx="767.01" cy="131.54" rx="0.33" ry="0.22" fill="#6a604e" opacity="0.033"/><ellipse cx="433.48" cy="141.45" rx="0.64" ry="0.45" fill="#6a604e" opacity="0.020"/><ellipse cx="538.86" cy="214.47" rx="0.61" ry="0.42" fill="#6a604e" opacity="0.029"/><ellipse cx="50.74" cy="89.3" rx="1.38" ry="0.3" fill="#6a604e" opacity="0.025"/><ellipse cx="1165.04" cy="361.2" rx="1.35" ry="0.3" fill="#6a604e" opacity="0.052"/><ellipse cx="49.65" cy="133.03" rx="1.17" ry="0.35" fill="#6a604e" opacity="0.052"/><ellipse cx="463.04" cy="490.77" rx="0.39" ry="0.39" fill="#6a604e" opacity="0.028"/><ellipse cx="239.31" cy="494.55" rx="0.77" ry="0.44" fill="#6a604e" opacity="0.031"/><ellipse cx="876.28" cy="508.18" rx="0.99" ry="0.27" fill="#6a604e" opacity="0.047"/><ellipse cx="1141.03" cy="448.66" rx="0.79" ry="0.32" fill="#6a604e" opacity="0.024"/><ellipse cx="922.2" cy="88.62" rx="0.54" ry="0.21" fill="#6a604e" opacity="0.027"/><ellipse cx="460.49" cy="266.92" rx="0.49" ry="0.33" fill="#6a604e" opacity="0.050"/><ellipse cx="116.31" cy="75.82" rx="0.87" ry="0.47" fill="#6a604e" opacity="0.057"/><ellipse cx="682.98" cy="51.31" rx="1.26" ry="0.5" fill="#6a604e" opacity="0.056"/><ellipse cx="637.12" cy="214.28" rx="0.95" ry="0.44" fill="#6a604e" opacity="0.060"/><ellipse cx="592.3" cy="283.73" rx="0.64" ry="0.36" fill="#6a604e" opacity="0.042"/><ellipse cx="339.72" cy="256.62" rx="1.31" ry="0.27" fill="#6a604e" opacity="0.030"/><ellipse cx="365.52" cy="480.76" rx="0.63" ry="0.45" fill="#6a604e" opacity="0.057"/><ellipse cx="1050.86" cy="450.44" rx="0.51" ry="0.34" fill="#6a604e" opacity="0.053"/><ellipse cx="295.0" cy="336.98" rx="1.26" ry="0.48" fill="#6a604e" opacity="0.034"/><ellipse cx="143.11" cy="17.36" rx="0.65" ry="0.36" fill="#6a604e" opacity="0.031"/><ellipse cx="988.62" cy="364.03" rx="0.98" ry="0.45" fill="#6a604e" opacity="0.033"/><ellipse cx="779.96" cy="196.45" rx="0.62" ry="0.23" fill="#6a604e" opacity="0.052"/><ellipse cx="1080.45" cy="17.44" rx="1.09" ry="0.22" fill="#6a604e" opacity="0.037"/><ellipse cx="379.89" cy="505.57" rx="0.78" ry="0.35" fill="#6a604e" opacity="0.034"/><ellipse cx="305.59" cy="136.24" rx="0.37" ry="0.2" fill="#6a604e" opacity="0.042"/><ellipse cx="886.05" cy="375.49" rx="0.59" ry="0.5" fill="#6a604e" opacity="0.023"/><ellipse cx="517.99" cy="186.88" rx="0.5" ry="0.49" fill="#6a604e" opacity="0.049"/><ellipse cx="157.72" cy="99.13" rx="1.19" ry="0.31" fill="#6a604e" opacity="0.032"/><ellipse cx="355.98" cy="182.22" rx="0.95" ry="0.29" fill="#6a604e" opacity="0.044"/><ellipse cx="76.05" cy="299.74" rx="0.94" ry="0.3" fill="#6a604e" opacity="0.055"/><ellipse cx="1113.85" cy="367.99" rx="0.75" ry="0.25" fill="#6a604e" opacity="0.045"/><ellipse cx="346.84" cy="92.38" rx="0.89" ry="0.26" fill="#6a604e" opacity="0.046"/><ellipse cx="911.67" cy="6.56" rx="1.0" ry="0.26" fill="#6a604e" opacity="0.033"/><ellipse cx="867.85" cy="540.57" rx="0.65" ry="0.43" fill="#6a604e" opacity="0.034"/><ellipse cx="1128.73" cy="97.27" rx="1.03" ry="0.22" fill="#6a604e" opacity="0.042"/><ellipse cx="891.74" cy="511.42" rx="1.14" ry="0.36" fill="#6a604e" opacity="0.036"/><ellipse cx="755.99" cy="363.08" rx="0.97" ry="0.41" fill="#6a604e" opacity="0.050"/><ellipse cx="1124.45" cy="347.56" rx="1.26" ry="0.42" fill="#6a604e" opacity="0.035"/><ellipse cx="962.98" cy="204.55" rx="1.21" ry="0.46" fill="#6a604e" opacity="0.056"/><ellipse cx="1092.21" cy="387.76" rx="0.85" ry="0.29" fill="#6a604e" opacity="0.046"/><ellipse cx="1071.11" cy="200.79" rx="0.53" ry="0.43" fill="#6a604e" opacity="0.056"/><ellipse cx="247.25" cy="77.87" rx="0.42" ry="0.37" fill="#6a604e" opacity="0.053"/><ellipse cx="297.18" cy="443.02" rx="0.35" ry="0.26" fill="#6a604e" opacity="0.042"/><ellipse cx="909.65" cy="276.51" rx="1.06" ry="0.31" fill="#6a604e" opacity="0.035"/><ellipse cx="625.01" cy="1.12" rx="0.52" ry="0.31" fill="#6a604e" opacity="0.046"/><ellipse cx="236.08" cy="136.4" rx="1.39" ry="0.4" fill="#6a604e" opacity="0.036"/><ellipse cx="939.65" cy="400.36" rx="1.2" ry="0.37" fill="#6a604e" opacity="0.045"/><ellipse cx="116.3" cy="240.03" rx="0.73" ry="0.28" fill="#6a604e" opacity="0.035"/><ellipse cx="1063.23" cy="124.68" rx="0.43" ry="0.3" fill="#6a604e" opacity="0.027"/><ellipse cx="28.09" cy="511.21" rx="0.9" ry="0.21" fill="#6a604e" opacity="0.041"/><ellipse cx="208.98" cy="270.65" rx="1.34" ry="0.49" fill="#6a604e" opacity="0.036"/><ellipse cx="939.09" cy="276.0" rx="0.39" ry="0.32" fill="#6a604e" opacity="0.052"/><ellipse cx="933.35" cy="404.92" rx="1.39" ry="0.31" fill="#6a604e" opacity="0.048"/><ellipse cx="981.94" cy="517.64" rx="1.26" ry="0.46" fill="#6a604e" opacity="0.034"/><ellipse cx="453.5" cy="346.5" rx="0.43" ry="0.29" fill="#6a604e" opacity="0.035"/><ellipse cx="246.92" cy="103.75" rx="1.02" ry="0.29" fill="#6a604e" opacity="0.022"/><ellipse cx="957.65" cy="529.79" rx="0.55" ry="0.41" fill="#6a604e" opacity="0.023"/><ellipse cx="264.79" cy="92.04" rx="1.01" ry="0.37" fill="#6a604e" opacity="0.053"/><ellipse cx="791.58" cy="422.97" rx="1.26" ry="0.38" fill="#6a604e" opacity="0.029"/><ellipse cx="195.16" cy="479.69" rx="1.2" ry="0.39" fill="#6a604e" opacity="0.058"/><ellipse cx="970.85" cy="225.63" rx="0.5" ry="0.33" fill="#6a604e" opacity="0.057"/><ellipse cx="1066.73" cy="3.46" rx="0.31" ry="0.33" fill="#6a604e" opacity="0.056"/><ellipse cx="1054.43" cy="468.41" rx="0.38" ry="0.26" fill="#6a604e" opacity="0.051"/><ellipse cx="528.54" cy="178.74" rx="1.36" ry="0.21" fill="#6a604e" opacity="0.039"/><ellipse cx="1058.79" cy="392.41" rx="1.28" ry="0.28" fill="#6a604e" opacity="0.042"/><ellipse cx="1174.61" cy="74.17" rx="0.77" ry="0.5" fill="#6a604e" opacity="0.026"/><ellipse cx="928.42" cy="419.41" rx="0.58" ry="0.5" fill="#6a604e" opacity="0.051"/><ellipse cx="158.39" cy="554.37" rx="1.27" ry="0.34" fill="#6a604e" opacity="0.021"/><ellipse cx="941.19" cy="327.53" rx="1.12" ry="0.22" fill="#6a604e" opacity="0.039"/><ellipse cx="969.65" cy="407.91" rx="0.49" ry="0.3" fill="#6a604e" opacity="0.038"/><ellipse cx="551.07" cy="554.13" rx="1.33" ry="0.2" fill="#6a604e" opacity="0.045"/><ellipse cx="165.01" cy="484.18" rx="0.88" ry="0.47" fill="#6a604e" opacity="0.056"/><ellipse cx="1121.25" cy="94.51" rx="0.37" ry="0.43" fill="#6a604e" opacity="0.039"/><ellipse cx="932.89" cy="247.7" rx="0.76" ry="0.42" fill="#6a604e" opacity="0.035"/><ellipse cx="595.59" cy="222.79" rx="1.04" ry="0.22" fill="#6a604e" opacity="0.038"/><ellipse cx="696.35" cy="383.61" rx="1.29" ry="0.31" fill="#6a604e" opacity="0.058"/><ellipse cx="843.41" cy="214.78" rx="0.92" ry="0.31" fill="#6a604e" opacity="0.046"/><ellipse cx="29.8" cy="502.57" rx="0.7" ry="0.2" fill="#6a604e" opacity="0.023"/><ellipse cx="407.08" cy="147.3" rx="1.22" ry="0.31" fill="#6a604e" opacity="0.057"/><ellipse cx="333.73" cy="193.18" rx="1.35" ry="0.46" fill="#6a604e" opacity="0.057"/><ellipse cx="137.46" cy="38.5" rx="1.06" ry="0.3" fill="#6a604e" opacity="0.024"/><ellipse cx="111.05" cy="180.8" rx="0.64" ry="0.4" fill="#6a604e" opacity="0.060"/><ellipse cx="202.9" cy="444.54" rx="0.95" ry="0.46" fill="#6a604e" opacity="0.060"/><ellipse cx="1099.32" cy="73.84" rx="1.11" ry="0.43" fill="#6a604e" opacity="0.035"/><ellipse cx="38.19" cy="425.73" rx="0.99" ry="0.43" fill="#6a604e" opacity="0.050"/><ellipse cx="882.29" cy="24.26" rx="1.34" ry="0.49" fill="#6a604e" opacity="0.034"/><ellipse cx="942.81" cy="525.35" rx="0.77" ry="0.3" fill="#6a604e" opacity="0.044"/><ellipse cx="936.41" cy="231.05" rx="1.07" ry="0.49" fill="#6a604e" opacity="0.035"/><ellipse cx="1092.02" cy="78.51" rx="0.95" ry="0.45" fill="#6a604e" opacity="0.036"/><ellipse cx="340.05" cy="155.49" rx="0.7" ry="0.32" fill="#6a604e" opacity="0.037"/><ellipse cx="292.93" cy="333.27" rx="0.54" ry="0.28" fill="#6a604e" opacity="0.039"/><ellipse cx="1092.4" cy="154.17" rx="0.5" ry="0.43" fill="#6a604e" opacity="0.043"/><ellipse cx="144.53" cy="544.83" rx="0.52" ry="0.39" fill="#6a604e" opacity="0.030"/><ellipse cx="992.72" cy="207.17" rx="0.99" ry="0.44" fill="#6a604e" opacity="0.048"/><ellipse cx="372.76" cy="168.78" rx="0.94" ry="0.36" fill="#6a604e" opacity="0.049"/><ellipse cx="82.39" cy="36.06" rx="0.3" ry="0.44" fill="#6a604e" opacity="0.027"/><ellipse cx="902.77" cy="255.78" rx="1.35" ry="0.39" fill="#6a604e" opacity="0.054"/><ellipse cx="120.39" cy="500.46" rx="0.72" ry="0.21" fill="#6a604e" opacity="0.054"/><ellipse cx="280.51" cy="365.78" rx="0.32" ry="0.33" fill="#6a604e" opacity="0.039"/><ellipse cx="539.53" cy="462.88" rx="0.62" ry="0.47" fill="#6a604e" opacity="0.026"/><ellipse cx="1161.34" cy="160.14" rx="1.05" ry="0.48" fill="#6a604e" opacity="0.047"/><ellipse cx="1023.79" cy="48.88" rx="1.36" ry="0.21" fill="#6a604e" opacity="0.047"/><ellipse cx="988.98" cy="429.29" rx="1.1" ry="0.38" fill="#6a604e" opacity="0.059"/><ellipse cx="269.09" cy="509.73" rx="1.19" ry="0.26" fill="#6a604e" opacity="0.039"/><ellipse cx="522.8" cy="83.45" rx="1.24" ry="0.46" fill="#6a604e" opacity="0.050"/><ellipse cx="41.54" cy="408.72" rx="1.32" ry="0.42" fill="#6a604e" opacity="0.057"/><ellipse cx="1152.11" cy="393.79" rx="1.12" ry="0.29" fill="#6a604e" opacity="0.051"/><ellipse cx="375.8" cy="148.84" rx="0.66" ry="0.29" fill="#6a604e" opacity="0.022"/><ellipse cx="180.08" cy="154.92" rx="0.54" ry="0.21" fill="#6a604e" opacity="0.049"/><ellipse cx="990.51" cy="186.2" rx="1.08" ry="0.46" fill="#6a604e" opacity="0.021"/><ellipse cx="687.68" cy="330.2" rx="0.49" ry="0.47" fill="#6a604e" opacity="0.052"/><ellipse cx="643.27" cy="300.4" rx="1.22" ry="0.22" fill="#6a604e" opacity="0.055"/><ellipse cx="629.09" cy="170.2" rx="0.59" ry="0.36" fill="#6a604e" opacity="0.024"/><ellipse cx="991.93" cy="228.87" rx="1.29" ry="0.49" fill="#6a604e" opacity="0.052"/><ellipse cx="130.22" cy="136.94" rx="0.99" ry="0.48" fill="#6a604e" opacity="0.045"/><ellipse cx="432.85" cy="452.79" rx="0.81" ry="0.38" fill="#6a604e" opacity="0.038"/><ellipse cx="1141.27" cy="343.23" rx="0.42" ry="0.39" fill="#6a604e" opacity="0.036"/><ellipse cx="203.21" cy="277.71" rx="0.59" ry="0.48" fill="#6a604e" opacity="0.029"/><ellipse cx="653.71" cy="2.98" rx="0.63" ry="0.4" fill="#6a604e" opacity="0.040"/><ellipse cx="795.05" cy="321.34" rx="0.98" ry="0.28" fill="#6a604e" opacity="0.057"/><ellipse cx="781.04" cy="15.61" rx="1.22" ry="0.25" fill="#6a604e" opacity="0.037"/><ellipse cx="778.59" cy="502.55" rx="0.49" ry="0.29" fill="#6a604e" opacity="0.041"/><ellipse cx="818.03" cy="259.57" rx="1.08" ry="0.5" fill="#6a604e" opacity="0.023"/><ellipse cx="484.55" cy="444.0" rx="1.19" ry="0.49" fill="#6a604e" opacity="0.033"/><ellipse cx="298.7" cy="373.46" rx="1.21" ry="0.44" fill="#6a604e" opacity="0.041"/><ellipse cx="154.71" cy="391.89" rx="0.58" ry="0.21" fill="#6a604e" opacity="0.020"/><ellipse cx="409.08" cy="209.24" rx="0.9" ry="0.33" fill="#6a604e" opacity="0.040"/><ellipse cx="759.9" cy="102.39" rx="1.18" ry="0.4" fill="#6a604e" opacity="0.052"/><ellipse cx="676.71" cy="302.47" rx="1.22" ry="0.4" fill="#6a604e" opacity="0.031"/><ellipse cx="1038.54" cy="107.49" rx="0.6" ry="0.45" fill="#6a604e" opacity="0.038"/><ellipse cx="182.87" cy="503.16" rx="0.96" ry="0.21" fill="#6a604e" opacity="0.034"/><ellipse cx="412.25" cy="156.61" rx="1.09" ry="0.27" fill="#6a604e" opacity="0.023"/><ellipse cx="1031.16" cy="322.06" rx="0.82" ry="0.47" fill="#6a604e" opacity="0.047"/><ellipse cx="1022.06" cy="187.45" rx="0.63" ry="0.3" fill="#6a604e" opacity="0.039"/><ellipse cx="692.68" cy="111.34" rx="0.92" ry="0.48" fill="#6a604e" opacity="0.050"/><ellipse cx="5.66" cy="266.64" rx="0.99" ry="0.22" fill="#6a604e" opacity="0.060"/><ellipse cx="944.26" cy="312.97" rx="0.87" ry="0.39" fill="#6a604e" opacity="0.036"/><ellipse cx="691.95" cy="283.71" rx="0.68" ry="0.34" fill="#6a604e" opacity="0.022"/><ellipse cx="733.41" cy="132.71" rx="0.59" ry="0.25" fill="#6a604e" opacity="0.050"/><ellipse cx="545.27" cy="324.96" rx="0.86" ry="0.38" fill="#6a604e" opacity="0.034"/><ellipse cx="311.48" cy="429.63" rx="1.1" ry="0.25" fill="#6a604e" opacity="0.026"/><ellipse cx="422.39" cy="444.98" rx="0.64" ry="0.27" fill="#6a604e" opacity="0.037"/><ellipse cx="600.24" cy="351.67" rx="0.65" ry="0.32" fill="#6a604e" opacity="0.059"/><ellipse cx="909.53" cy="122.89" rx="0.86" ry="0.25" fill="#6a604e" opacity="0.059"/><ellipse cx="312.3" cy="518.3" rx="0.54" ry="0.27" fill="#6a604e" opacity="0.034"/><ellipse cx="391.25" cy="192.63" rx="0.73" ry="0.32" fill="#6a604e" opacity="0.024"/><ellipse cx="753.24" cy="387.69" rx="0.55" ry="0.24" fill="#6a604e" opacity="0.021"/><ellipse cx="219.16" cy="289.65" rx="0.99" ry="0.48" fill="#6a604e" opacity="0.053"/><ellipse cx="190.66" cy="144.5" rx="0.52" ry="0.22" fill="#6a604e" opacity="0.021"/><ellipse cx="650.18" cy="534.82" rx="1.38" ry="0.21" fill="#6a604e" opacity="0.030"/><ellipse cx="422.04" cy="481.17" rx="0.41" ry="0.33" fill="#6a604e" opacity="0.055"/><ellipse cx="938.5" cy="100.9" rx="0.87" ry="0.4" fill="#6a604e" opacity="0.025"/><ellipse cx="1034.84" cy="379.5" rx="0.7" ry="0.3" fill="#6a604e" opacity="0.024"/><ellipse cx="1083.52" cy="107.33" rx="0.95" ry="0.41" fill="#6a604e" opacity="0.044"/><ellipse cx="956.02" cy="153.77" rx="1.03" ry="0.26" fill="#6a604e" opacity="0.048"/><ellipse cx="904.75" cy="260.81" rx="1.1" ry="0.4" fill="#6a604e" opacity="0.021"/><ellipse cx="254.65" cy="117.74" rx="1.06" ry="0.45" fill="#6a604e" opacity="0.029"/><ellipse cx="1108.87" cy="110.05" rx="0.77" ry="0.45" fill="#6a604e" opacity="0.031"/><ellipse cx="1029.34" cy="24.86" rx="0.62" ry="0.45" fill="#6a604e" opacity="0.046"/><ellipse cx="147.51" cy="274.33" rx="0.88" ry="0.21" fill="#6a604e" opacity="0.057"/><ellipse cx="30.14" cy="519.86" rx="1.06" ry="0.4" fill="#6a604e" opacity="0.035"/><ellipse cx="294.82" cy="276.22" rx="1.35" ry="0.23" fill="#6a604e" opacity="0.039"/><ellipse cx="726.23" cy="544.19" rx="1.08" ry="0.48" fill="#6a604e" opacity="0.048"/><ellipse cx="522.55" cy="524.18" rx="0.34" ry="0.42" fill="#6a604e" opacity="0.021"/><ellipse cx="107.16" cy="28.34" rx="0.79" ry="0.44" fill="#6a604e" opacity="0.052"/><ellipse cx="746.21" cy="206.75" rx="0.62" ry="0.34" fill="#6a604e" opacity="0.033"/><ellipse cx="616.81" cy="361.86" rx="0.4" ry="0.48" fill="#6a604e" opacity="0.025"/><ellipse cx="1048.4" cy="8.66" rx="0.3" ry="0.49" fill="#6a604e" opacity="0.033"/><ellipse cx="469.24" cy="431.53" rx="0.39" ry="0.38" fill="#6a604e" opacity="0.055"/><ellipse cx="579.76" cy="13.24" rx="0.47" ry="0.46" fill="#6a604e" opacity="0.028"/><ellipse cx="847.28" cy="358.46" rx="1.15" ry="0.39" fill="#6a604e" opacity="0.041"/><ellipse cx="962.68" cy="403.79" rx="0.55" ry="0.22" fill="#6a604e" opacity="0.044"/><ellipse cx="689.39" cy="372.28" rx="0.62" ry="0.5" fill="#6a604e" opacity="0.044"/><ellipse cx="503.56" cy="95.1" rx="0.5" ry="0.28" fill="#6a604e" opacity="0.047"/><ellipse cx="495.04" cy="454.84" rx="0.65" ry="0.45" fill="#6a604e" opacity="0.059"/><ellipse cx="802.95" cy="445.54" rx="0.62" ry="0.34" fill="#6a604e" opacity="0.035"/><ellipse cx="481.37" cy="544.54" rx="0.67" ry="0.49" fill="#6a604e" opacity="0.049"/><ellipse cx="321.78" cy="242.56" rx="0.77" ry="0.34" fill="#6a604e" opacity="0.058"/><ellipse cx="763.28" cy="278.16" rx="0.94" ry="0.3" fill="#6a604e" opacity="0.025"/><ellipse cx="466.61" cy="452.35" rx="1.17" ry="0.21" fill="#6a604e" opacity="0.045"/><ellipse cx="919.9" cy="353.43" rx="1.35" ry="0.29" fill="#6a604e" opacity="0.027"/><ellipse cx="481.48" cy="13.51" rx="1.24" ry="0.33" fill="#6a604e" opacity="0.046"/><ellipse cx="603.2" cy="294.97" rx="0.71" ry="0.44" fill="#6a604e" opacity="0.055"/><ellipse cx="1190.35" cy="316.98" rx="0.81" ry="0.37" fill="#6a604e" opacity="0.058"/><ellipse cx="397.65" cy="8.41" rx="0.85" ry="0.46" fill="#6a604e" opacity="0.026"/><ellipse cx="414.08" cy="351.27" rx="0.99" ry="0.3" fill="#6a604e" opacity="0.050"/><ellipse cx="990.08" cy="394.08" rx="1.26" ry="0.24" fill="#6a604e" opacity="0.037"/><ellipse cx="493.03" cy="162.09" rx="0.77" ry="0.48" fill="#6a604e" opacity="0.050"/><ellipse cx="227.35" cy="388.47" rx="1.02" ry="0.28" fill="#6a604e" opacity="0.034"/><ellipse cx="157.13" cy="253.15" rx="1.11" ry="0.31" fill="#6a604e" opacity="0.032"/><ellipse cx="293.52" cy="545.64" rx="0.57" ry="0.33" fill="#6a604e" opacity="0.029"/><ellipse cx="588.92" cy="437.27" rx="1.26" ry="0.37" fill="#6a604e" opacity="0.057"/><ellipse cx="346.44" cy="385.81" rx="0.71" ry="0.28" fill="#6a604e" opacity="0.036"/><ellipse cx="247.49" cy="350.8" rx="0.48" ry="0.41" fill="#6a604e" opacity="0.049"/><ellipse cx="25.46" cy="212.22" rx="1.02" ry="0.39" fill="#6a604e" opacity="0.045"/><ellipse cx="17.69" cy="417.78" rx="0.45" ry="0.21" fill="#6a604e" opacity="0.050"/><ellipse cx="520.39" cy="108.84" rx="0.46" ry="0.31" fill="#6a604e" opacity="0.046"/><ellipse cx="40.03" cy="290.18" rx="0.8" ry="0.46" fill="#6a604e" opacity="0.037"/><ellipse cx="196.97" cy="331.43" rx="0.4" ry="0.23" fill="#6a604e" opacity="0.056"/><ellipse cx="675.61" cy="197.13" rx="0.53" ry="0.24" fill="#6a604e" opacity="0.037"/><ellipse cx="504.5" cy="528.66" rx="0.82" ry="0.32" fill="#6a604e" opacity="0.040"/><ellipse cx="358.7" cy="281.06" rx="0.73" ry="0.26" fill="#6a604e" opacity="0.035"/><ellipse cx="930.48" cy="48.2" rx="0.97" ry="0.48" fill="#6a604e" opacity="0.044"/><ellipse cx="547.3" cy="486.11" rx="1.1" ry="0.3" fill="#6a604e" opacity="0.020"/><ellipse cx="1097.5" cy="251.1" rx="0.65" ry="0.2" fill="#6a604e" opacity="0.029"/><ellipse cx="880.64" cy="337.93" rx="0.47" ry="0.43" fill="#6a604e" opacity="0.051"/><ellipse cx="110.12" cy="345.36" rx="0.67" ry="0.31" fill="#6a604e" opacity="0.032"/><ellipse cx="642.59" cy="50.04" rx="1.36" ry="0.24" fill="#6a604e" opacity="0.059"/><ellipse cx="31.36" cy="229.37" rx="0.6" ry="0.5" fill="#6a604e" opacity="0.034"/><ellipse cx="1199.67" cy="209.31" rx="0.43" ry="0.31" fill="#6a604e" opacity="0.023"/><ellipse cx="585.2" cy="91.25" rx="0.54" ry="0.24" fill="#6a604e" opacity="0.033"/><ellipse cx="1190.96" cy="300.31" rx="0.99" ry="0.45" fill="#6a604e" opacity="0.037"/><ellipse cx="792.22" cy="8.01" rx="0.88" ry="0.45" fill="#6a604e" opacity="0.034"/><ellipse cx="143.36" cy="513.73" rx="1.16" ry="0.3" fill="#6a604e" opacity="0.025"/><ellipse cx="458.3" cy="269.09" rx="0.59" ry="0.46" fill="#6a604e" opacity="0.042"/><ellipse cx="971.41" cy="293.98" rx="1.33" ry="0.39" fill="#6a604e" opacity="0.040"/><ellipse cx="584.19" cy="479.47" rx="0.98" ry="0.37" fill="#6a604e" opacity="0.027"/><ellipse cx="1057.04" cy="376.22" rx="1.38" ry="0.32" fill="#6a604e" opacity="0.028"/><ellipse cx="64.05" cy="186.28" rx="0.85" ry="0.27" fill="#6a604e" opacity="0.049"/><ellipse cx="228.32" cy="514.33" rx="0.47" ry="0.25" fill="#6a604e" opacity="0.025"/><ellipse cx="946.3" cy="493.36" rx="1.06" ry="0.27" fill="#6a604e" opacity="0.053"/><ellipse cx="837.1" cy="141.87" rx="1.29" ry="0.43" fill="#6a604e" opacity="0.031"/><ellipse cx="641.46" cy="5.02" rx="0.42" ry="0.22" fill="#6a604e" opacity="0.053"/><ellipse cx="541.73" cy="336.95" rx="1.31" ry="0.29" fill="#6a604e" opacity="0.026"/><ellipse cx="316.46" cy="523.96" rx="0.66" ry="0.21" fill="#6a604e" opacity="0.023"/><ellipse cx="456.56" cy="497.51" rx="0.55" ry="0.43" fill="#6a604e" opacity="0.034"/><ellipse cx="1172.85" cy="339.68" rx="0.56" ry="0.3" fill="#6a604e" opacity="0.041"/><ellipse cx="481.32" cy="253.08" rx="1.35" ry="0.21" fill="#6a604e" opacity="0.034"/><ellipse cx="894.5" cy="504.62" rx="1.26" ry="0.31" fill="#6a604e" opacity="0.034"/><ellipse cx="1068.24" cy="321.81" rx="1.35" ry="0.24" fill="#6a604e" opacity="0.051"/><ellipse cx="874.43" cy="556.83" rx="0.58" ry="0.38" fill="#6a604e" opacity="0.054"/><ellipse cx="545.73" cy="69.58" rx="1.05" ry="0.25" fill="#6a604e" opacity="0.027"/><ellipse cx="1192.81" cy="261.51" rx="1.36" ry="0.48" fill="#6a604e" opacity="0.026"/><ellipse cx="280.39" cy="426.76" rx="0.49" ry="0.23" fill="#6a604e" opacity="0.024"/><ellipse cx="1045.32" cy="500.83" rx="1.26" ry="0.32" fill="#6a604e" opacity="0.030"/><ellipse cx="639.38" cy="17.82" rx="0.53" ry="0.47" fill="#6a604e" opacity="0.060"/><ellipse cx="447.94" cy="126.09" rx="0.97" ry="0.47" fill="#6a604e" opacity="0.043"/><ellipse cx="637.87" cy="372.61" rx="1.09" ry="0.29" fill="#6a604e" opacity="0.033"/><ellipse cx="571.5" cy="262.47" rx="1.39" ry="0.26" fill="#6a604e" opacity="0.021"/><ellipse cx="663.51" cy="545.63" rx="1.34" ry="0.24" fill="#6a604e" opacity="0.060"/><ellipse cx="1088.75" cy="147.74" rx="0.57" ry="0.26" fill="#6a604e" opacity="0.039"/><ellipse cx="666.89" cy="118.04" rx="0.85" ry="0.36" fill="#6a604e" opacity="0.026"/><ellipse cx="781.63" cy="69.23" rx="0.81" ry="0.26" fill="#6a604e" opacity="0.026"/><ellipse cx="687.4" cy="452.53" rx="0.88" ry="0.24" fill="#6a604e" opacity="0.027"/><ellipse cx="1041.15" cy="314.82" rx="0.6" ry="0.32" fill="#6a604e" opacity="0.026"/><ellipse cx="695.03" cy="3.91" rx="1.16" ry="0.26" fill="#6a604e" opacity="0.034"/><ellipse cx="1158.32" cy="33.43" rx="0.68" ry="0.39" fill="#6a604e" opacity="0.045"/><ellipse cx="994.96" cy="456.56" rx="0.8" ry="0.43" fill="#6a604e" opacity="0.030"/><ellipse cx="944.89" cy="465.49" rx="0.32" ry="0.43" fill="#6a604e" opacity="0.034"/><ellipse cx="142.87" cy="80.84" rx="0.59" ry="0.44" fill="#6a604e" opacity="0.054"/><ellipse cx="756.17" cy="198.56" rx="0.6" ry="0.26" fill="#6a604e" opacity="0.023"/><ellipse cx="549.37" cy="363.17" rx="1.19" ry="0.43" fill="#6a604e" opacity="0.055"/><ellipse cx="684.63" cy="416.84" rx="0.99" ry="0.4" fill="#6a604e" opacity="0.051"/><ellipse cx="116.99" cy="19.16" rx="0.54" ry="0.32" fill="#6a604e" opacity="0.038"/><ellipse cx="83.28" cy="368.46" rx="0.99" ry="0.3" fill="#6a604e" opacity="0.056"/><ellipse cx="320.25" cy="187.22" rx="1.38" ry="0.28" fill="#6a604e" opacity="0.028"/><ellipse cx="66.77" cy="208.58" rx="0.95" ry="0.31" fill="#6a604e" opacity="0.043"/><ellipse cx="772.82" cy="311.21" rx="1.4" ry="0.42" fill="#6a604e" opacity="0.023"/><ellipse cx="1093.67" cy="400.69" rx="1.15" ry="0.46" fill="#6a604e" opacity="0.054"/><ellipse cx="285.83" cy="225.01" rx="1.02" ry="0.36" fill="#6a604e" opacity="0.051"/><ellipse cx="521.85" cy="390.72" rx="0.71" ry="0.3" fill="#6a604e" opacity="0.045"/><ellipse cx="536.73" cy="204.49" rx="0.78" ry="0.32" fill="#6a604e" opacity="0.033"/><ellipse cx="455.45" cy="315.32" rx="0.45" ry="0.31" fill="#6a604e" opacity="0.046"/><ellipse cx="440.14" cy="442.94" rx="0.62" ry="0.34" fill="#6a604e" opacity="0.038"/><ellipse cx="397.32" cy="279.62" rx="1.29" ry="0.48" fill="#6a604e" opacity="0.025"/><ellipse cx="962.99" cy="352.76" rx="0.85" ry="0.26" fill="#6a604e" opacity="0.031"/><ellipse cx="529.0" cy="76.5" rx="1.26" ry="0.47" fill="#6a604e" opacity="0.059"/><ellipse cx="90.74" cy="90.28" rx="1.36" ry="0.37" fill="#6a604e" opacity="0.030"/><ellipse cx="870.45" cy="332.48" rx="1.1" ry="0.46" fill="#6a604e" opacity="0.030"/><ellipse cx="340.12" cy="370.67" rx="1.36" ry="0.36" fill="#6a604e" opacity="0.044"/><ellipse cx="593.03" cy="12.53" rx="1.28" ry="0.36" fill="#6a604e" opacity="0.028"/><ellipse cx="103.94" cy="246.39" rx="1.2" ry="0.45" fill="#6a604e" opacity="0.052"/><ellipse cx="1150.89" cy="370.62" rx="0.6" ry="0.26" fill="#6a604e" opacity="0.043"/><ellipse cx="573.12" cy="120.66" rx="1.35" ry="0.22" fill="#6a604e" opacity="0.028"/><ellipse cx="233.38" cy="287.15" rx="1.09" ry="0.27" fill="#6a604e" opacity="0.028"/><ellipse cx="862.33" cy="506.79" rx="0.83" ry="0.47" fill="#6a604e" opacity="0.044"/><ellipse cx="577.53" cy="150.73" rx="0.56" ry="0.31" fill="#6a604e" opacity="0.057"/><ellipse cx="798.0" cy="420.19" rx="1.27" ry="0.45" fill="#6a604e" opacity="0.033"/><ellipse cx="219.35" cy="11.92" rx="1.03" ry="0.25" fill="#6a604e" opacity="0.051"/><ellipse cx="999.87" cy="89.64" rx="1.22" ry="0.3" fill="#6a604e" opacity="0.041"/><ellipse cx="1017.63" cy="21.53" rx="0.55" ry="0.28" fill="#6a604e" opacity="0.053"/><ellipse cx="1078.31" cy="252.48" rx="0.42" ry="0.45" fill="#6a604e" opacity="0.032"/><ellipse cx="730.75" cy="538.92" rx="1.14" ry="0.39" fill="#6a604e" opacity="0.044"/><ellipse cx="619.69" cy="300.2" rx="0.79" ry="0.41" fill="#6a604e" opacity="0.057"/><ellipse cx="33.27" cy="129.99" rx="1.03" ry="0.45" fill="#6a604e" opacity="0.043"/><ellipse cx="507.45" cy="132.76" rx="1.0" ry="0.22" fill="#6a604e" opacity="0.030"/><ellipse cx="981.46" cy="296.83" rx="0.96" ry="0.25" fill="#6a604e" opacity="0.023"/><ellipse cx="992.27" cy="69.82" rx="0.86" ry="0.38" fill="#6a604e" opacity="0.037"/><ellipse cx="402.72" cy="320.1" rx="0.93" ry="0.23" fill="#6a604e" opacity="0.034"/><ellipse cx="839.24" cy="334.83" rx="0.6" ry="0.36" fill="#6a604e" opacity="0.037"/><ellipse cx="95.98" cy="84.79" rx="1.17" ry="0.4" fill="#6a604e" opacity="0.032"/><ellipse cx="484.31" cy="122.43" rx="0.36" ry="0.28" fill="#6a604e" opacity="0.034"/><ellipse cx="480.65" cy="53.83" rx="1.17" ry="0.33" fill="#6a604e" opacity="0.021"/><ellipse cx="783.98" cy="61.36" rx="1.05" ry="0.33" fill="#6a604e" opacity="0.041"/><ellipse cx="430.57" cy="479.99" rx="0.62" ry="0.24" fill="#6a604e" opacity="0.042"/><ellipse cx="838.42" cy="128.54" rx="0.88" ry="0.42" fill="#6a604e" opacity="0.025"/><ellipse cx="1014.91" cy="187.14" rx="0.85" ry="0.29" fill="#6a604e" opacity="0.051"/><ellipse cx="732.18" cy="230.4" rx="0.67" ry="0.43" fill="#6a604e" opacity="0.033"/><ellipse cx="279.1" cy="18.47" rx="1.26" ry="0.46" fill="#6a604e" opacity="0.052"/><ellipse cx="1187.62" cy="240.58" rx="1.29" ry="0.39" fill="#6a604e" opacity="0.030"/><ellipse cx="425.3" cy="181.72" rx="0.66" ry="0.28" fill="#6a604e" opacity="0.034"/><ellipse cx="1122.62" cy="30.18" rx="0.81" ry="0.43" fill="#6a604e" opacity="0.052"/><ellipse cx="41.99" cy="457.78" rx="0.65" ry="0.39" fill="#6a604e" opacity="0.044"/><ellipse cx="992.7" cy="513.1" rx="1.13" ry="0.25" fill="#6a604e" opacity="0.032"/><ellipse cx="345.43" cy="52.37" rx="0.58" ry="0.26" fill="#6a604e" opacity="0.059"/><ellipse cx="739.27" cy="490.14" rx="1.35" ry="0.46" fill="#6a604e" opacity="0.049"/><ellipse cx="425.89" cy="178.68" rx="0.76" ry="0.45" fill="#6a604e" opacity="0.032"/><ellipse cx="611.72" cy="440.51" rx="0.39" ry="0.4" fill="#6a604e" opacity="0.021"/><ellipse cx="305.77" cy="376.01" rx="1.05" ry="0.49" fill="#6a604e" opacity="0.046"/><ellipse cx="1059.33" cy="444.55" rx="0.55" ry="0.49" fill="#6a604e" opacity="0.021"/><ellipse cx="890.15" cy="228.92" rx="0.56" ry="0.3" fill="#6a604e" opacity="0.049"/><ellipse cx="1089.11" cy="264.23" rx="1.26" ry="0.3" fill="#6a604e" opacity="0.054"/><ellipse cx="1126.94" cy="387.92" rx="0.7" ry="0.28" fill="#6a604e" opacity="0.025"/><ellipse cx="973.9" cy="460.45" rx="0.54" ry="0.24" fill="#6a604e" opacity="0.056"/><ellipse cx="992.22" cy="285.36" rx="0.32" ry="0.44" fill="#6a604e" opacity="0.030"/><ellipse cx="611.76" cy="103.86" rx="1.24" ry="0.38" fill="#6a604e" opacity="0.021"/><ellipse cx="806.42" cy="128.89" rx="1.15" ry="0.28" fill="#6a604e" opacity="0.042"/><ellipse cx="778.24" cy="199.6" rx="0.43" ry="0.31" fill="#6a604e" opacity="0.023"/><ellipse cx="987.28" cy="171.71" rx="0.31" ry="0.34" fill="#6a604e" opacity="0.037"/><ellipse cx="798.21" cy="255.29" rx="0.37" ry="0.2" fill="#6a604e" opacity="0.059"/><ellipse cx="704.51" cy="217.58" rx="0.55" ry="0.41" fill="#6a604e" opacity="0.053"/><ellipse cx="725.87" cy="115.86" rx="0.64" ry="0.46" fill="#6a604e" opacity="0.036"/><ellipse cx="792.61" cy="9.41" rx="0.94" ry="0.46" fill="#6a604e" opacity="0.055"/><ellipse cx="1008.27" cy="210.95" rx="0.67" ry="0.35" fill="#6a604e" opacity="0.037"/><ellipse cx="751.35" cy="223.75" rx="1.32" ry="0.49" fill="#6a604e" opacity="0.038"/><ellipse cx="816.76" cy="502.07" rx="1.36" ry="0.34" fill="#6a604e" opacity="0.033"/><ellipse cx="11.08" cy="26.21" rx="0.84" ry="0.24" fill="#6a604e" opacity="0.039"/><ellipse cx="1026.46" cy="174.45" rx="0.86" ry="0.48" fill="#6a604e" opacity="0.038"/><ellipse cx="968.68" cy="535.1" rx="0.63" ry="0.27" fill="#6a604e" opacity="0.050"/><ellipse cx="589.02" cy="135.12" rx="0.63" ry="0.4" fill="#6a604e" opacity="0.034"/><ellipse cx="810.32" cy="159.83" rx="0.59" ry="0.29" fill="#6a604e" opacity="0.053"/><ellipse cx="218.77" cy="89.75" rx="0.4" ry="0.4" fill="#6a604e" opacity="0.055"/><ellipse cx="317.02" cy="551.46" rx="1.05" ry="0.34" fill="#6a604e" opacity="0.038"/><ellipse cx="1015.24" cy="332.92" rx="1.1" ry="0.25" fill="#6a604e" opacity="0.042"/><ellipse cx="964.91" cy="166.36" rx="0.62" ry="0.28" fill="#6a604e" opacity="0.027"/><ellipse cx="400.92" cy="141.11" rx="0.32" ry="0.33" fill="#6a604e" opacity="0.036"/><ellipse cx="741.97" cy="153.84" rx="1.33" ry="0.25" fill="#6a604e" opacity="0.039"/><ellipse cx="103.02" cy="256.64" rx="0.69" ry="0.33" fill="#6a604e" opacity="0.029"/><ellipse cx="451.38" cy="372.02" rx="0.62" ry="0.28" fill="#6a604e" opacity="0.025"/><ellipse cx="484.88" cy="121.76" rx="1.04" ry="0.35" fill="#6a604e" opacity="0.029"/><ellipse cx="775.62" cy="549.95" rx="0.86" ry="0.34" fill="#6a604e" opacity="0.044"/><ellipse cx="679.48" cy="559.76" rx="0.88" ry="0.22" fill="#6a604e" opacity="0.045"/><ellipse cx="716.74" cy="235.53" rx="1.01" ry="0.44" fill="#6a604e" opacity="0.038"/><ellipse cx="321.78" cy="27.52" rx="0.73" ry="0.39" fill="#6a604e" opacity="0.021"/><ellipse cx="1118.0" cy="329.52" rx="0.61" ry="0.35" fill="#6a604e" opacity="0.048"/><ellipse cx="641.25" cy="201.84" rx="1.23" ry="0.42" fill="#6a604e" opacity="0.060"/><ellipse cx="472.58" cy="326.7" rx="0.41" ry="0.3" fill="#6a604e" opacity="0.053"/><ellipse cx="1106.56" cy="482.95" rx="0.51" ry="0.29" fill="#6a604e" opacity="0.047"/><ellipse cx="1094.57" cy="136.83" rx="0.48" ry="0.29" fill="#6a604e" opacity="0.034"/><ellipse cx="244.22" cy="54.26" rx="0.58" ry="0.47" fill="#6a604e" opacity="0.051"/><ellipse cx="970.2" cy="319.73" rx="0.89" ry="0.33" fill="#6a604e" opacity="0.033"/><ellipse cx="227.12" cy="12.49" rx="0.89" ry="0.32" fill="#6a604e" opacity="0.035"/><ellipse cx="1123.34" cy="15.9" rx="0.43" ry="0.43" fill="#6a604e" opacity="0.038"/><ellipse cx="736.09" cy="352.17" rx="1.16" ry="0.46" fill="#6a604e" opacity="0.053"/><ellipse cx="806.52" cy="324.8" rx="0.5" ry="0.41" fill="#6a604e" opacity="0.042"/><ellipse cx="914.14" cy="66.91" rx="1.32" ry="0.47" fill="#6a604e" opacity="0.025"/><ellipse cx="1100.44" cy="505.95" rx="0.35" ry="0.29" fill="#6a604e" opacity="0.041"/><ellipse cx="1013.18" cy="465.81" rx="0.46" ry="0.45" fill="#6a604e" opacity="0.051"/><ellipse cx="77.18" cy="508.78" rx="0.66" ry="0.23" fill="#6a604e" opacity="0.049"/><ellipse cx="829.72" cy="547.06" rx="0.5" ry="0.26" fill="#6a604e" opacity="0.030"/><ellipse cx="1103.07" cy="454.68" rx="1.36" ry="0.45" fill="#6a604e" opacity="0.059"/><ellipse cx="977.43" cy="290.07" rx="1.12" ry="0.34" fill="#6a604e" opacity="0.052"/><ellipse cx="43.64" cy="137.57" rx="0.5" ry="0.43" fill="#6a604e" opacity="0.021"/><ellipse cx="646.48" cy="524.11" rx="1.07" ry="0.42" fill="#6a604e" opacity="0.027"/><ellipse cx="563.28" cy="22.97" rx="0.82" ry="0.21" fill="#6a604e" opacity="0.033"/><ellipse cx="608.52" cy="409.71" rx="0.6" ry="0.43" fill="#6a604e" opacity="0.041"/></g></svg>